<svg xmlns="http://www.w3.org/2000/svg" xmlns:xlink="http://www.w3.org/1999/xlink" width="128" height="128" class="lds-spinner" preserveAspectRatio="xMidYMid" viewBox="0 0 100 100" style="background:0 0"><g transform="rotate(0 50 50)"><rect width="6" height="12" x="47" y="24" fill="#b8da0b" rx="9.4" ry="4.8"><animate attributeName="opacity" begin="-0.9s" dur="1s" keyTimes="0;1" repeatCount="indefinite" values="1;0"/></rect></g><g transform="rotate(36 50 50)"><rect width="6" height="12" x="47" y="24" fill="#b8da0b" rx="9.4" ry="4.8"><animate attributeName="opacity" begin="-0.8s" dur="1s" keyTimes="0;1" repeatCount="indefinite" values="1;0"/></rect></g><g transform="rotate(72 50 50)"><rect width="6" height="12" x="47" y="24" fill="#b8da0b" rx="9.4" ry="4.8"><animate attributeName="opacity" begin="-0.7s" dur="1s" keyTimes="0;1" repeatCount="indefinite" values="1;0"/></rect></g><g transform="rotate(108 50 50)"><rect width="6" height="12" x="47" y="24" fill="#b8da0b" rx="9.4" ry="4.8"><animate attributeName="opacity" begin="-0.6s" dur="1s" keyTimes="0;1" repeatCount="indefinite" values="1;0"/></rect></g><g transform="rotate(144 50 50)"><rect width="6" height="12" x="47" y="24" fill="#b8da0b" rx="9.4" ry="4.8"><animate attributeName="opacity" begin="-0.5s" dur="1s" keyTimes="0;1" repeatCount="indefinite" values="1;0"/></rect></g><g transform="rotate(180 50 50)"><rect width="6" height="12" x="47" y="24" fill="#b8da0b" rx="9.4" ry="4.8"><animate attributeName="opacity" begin="-0.4s" dur="1s" keyTimes="0;1" repeatCount="indefinite" values="1;0"/></rect></g><g transform="rotate(216 50 50)"><rect width="6" height="12" x="47" y="24" fill="#b8da0b" rx="9.4" ry="4.8"><animate attributeName="opacity" begin="-0.3s" dur="1s" keyTimes="0;1" repeatCount="indefinite" values="1;0"/></rect></g><g transform="rotate(252 50 50)"><rect width="6" height="12" x="47" y="24" fill="#b8da0b" rx="9.4" ry="4.8"><animate attributeName="opacity" begin="-0.2s" dur="1s" keyTimes="0;1" repeatCount="indefinite" values="1;0"/></rect></g><g transform="rotate(288 50 50)"><rect width="6" height="12" x="47" y="24" fill="#b8da0b" rx="9.4" ry="4.8"><animate attributeName="opacity" begin="-0.1s" dur="1s" keyTimes="0;1" repeatCount="indefinite" values="1;0"/></rect></g><g transform="rotate(324 50 50)"><rect width="6" height="12" x="47" y="24" fill="#b8da0b" rx="9.4" ry="4.8"><animate attributeName="opacity" begin="0s" dur="1s" keyTimes="0;1" repeatCount="indefinite" values="1;0"/></rect></g></svg>